HIERARCHY
ROOT Hips
{
  OFFSET 5.84602e-005 68.8428 3.50346
  CHANNELS 6 Xposition Yposition Zposition Zrotation Xrotation Yrotation
  JOINT Spine
  {
    OFFSET 0 8.597 -4.6522
    CHANNELS 3 Zrotation Xrotation Yrotation
    JOINT Spine1
    {
      OFFSET 0 7.8454 0.4098
      CHANNELS 3 Zrotation Xrotation Yrotation
      JOINT Spine2
      {
        OFFSET 0 9.7078 -2.1609
        CHANNELS 3 Zrotation Xrotation Yrotation
        JOINT Neck
        {
          OFFSET 0 21.8761 -0.4549
          CHANNELS 3 Zrotation Xrotation Yrotation
          JOINT Head
          {
            OFFSET 0 12.3537 3.3602
            CHANNELS 3 Zrotation Xrotation Yrotation
            End Site
            {
              OFFSET 0.0001 18.9506 0.5657
            }
          }
        }
        JOINT LeftShoulder
        {
          OFFSET 2.2086 21.1115 7.2329
          CHANNELS 3 Zrotation Xrotation Yrotation
          JOINT LeftArm
          {
            OFFSET 13.1193 3.0282 -4.8998
            CHANNELS 3 Zrotation Xrotation Yrotation
            JOINT LeftForeArm
            {
              OFFSET 27.4081 -0.0973053 -0.2375
              CHANNELS 3 Zrotation Xrotation Yrotation
              JOINT LeftHand
              {
                OFFSET 22.8641 0.0662994 -0.1369
                CHANNELS 3 Zrotation Xrotation Yrotation
                JOINT LeftHandIndex1
                {
                  OFFSET 8.8614 0.775009 2.4612
                  CHANNELS 3 Zrotation Xrotation Yrotation
                  JOINT LeftHandIndex2
                  {
                    OFFSET 3.3146 -0.808304 0.5841
                    CHANNELS 3 Zrotation Xrotation Yrotation
                    JOINT LeftHandIndex3
                    {
                      OFFSET 2.2628 -0.552002 0.3989
                      CHANNELS 3 Zrotation Xrotation Yrotation
                      End Site
                      {
                        OFFSET 1.6102 -0.4807 0.2612
                      }
                    }
                  }
                }
                JOINT LeftHandMiddle1
                {
                  OFFSET 8.9937 0.895004 0.2143
                  CHANNELS 3 Zrotation Xrotation Yrotation
                  JOINT LeftHandMiddle2
                  {
                    OFFSET 4.0984 0.0113983 -0.0242
                    CHANNELS 3 Zrotation Xrotation Yrotation
                    JOINT LeftHandMiddle3
                    {
                      OFFSET 2.2716 0.00689697 -0.0138001
                      CHANNELS 3 Zrotation Xrotation Yrotation
                      End Site
                      {
                        OFFSET 2.0404 -0.1441 0.0027
                      }
                    }
                  }
                }
                JOINT LeftHandRing1
                {
                  OFFSET 8.5234 0.597198 -2.0164
                  CHANNELS 3 Zrotation Xrotation Yrotation
                  JOINT LeftHandRing2
                  {
                    OFFSET 3.7188 -0.188293 -0.2328
                    CHANNELS 3 Zrotation Xrotation Yrotation
                    JOINT LeftHandRing3
                    {
                      OFFSET 2.1191 -0.106598 -0.1332
                      CHANNELS 3 Zrotation Xrotation Yrotation
                      End Site
                      {
                        OFFSET 1.8737 -0.2304 -0.0886
                      }
                    }
                  }
                }
                JOINT LeftHandPinky1
                {
                  OFFSET 7.9094 -0.601089 -3.4825
                  CHANNELS 3 Zrotation Xrotation Yrotation
                  JOINT LeftHandPinky2
                  {
                    OFFSET 2.2874 -0.477005 -0.6314
                    CHANNELS 3 Zrotation Xrotation Yrotation
                    JOINT LeftHandPinky3
                    {
                      OFFSET 1.6774 -0.349396 -0.4633
                      CHANNELS 3 Zrotation Xrotation Yrotation
                      End Site
                      {
                        OFFSET 1.4888 -0.4091 -0.3416
                      }
                    }
                  }
                }
                JOINT LeftHandThumb1
                {
                  OFFSET 1.833 -1.3875 1.3896
                  CHANNELS 3 Zrotation Xrotation Yrotation
                  JOINT LeftHandThumb2
                  {
                    OFFSET 3.4129 -1.121 2.5732
                    CHANNELS 3 Zrotation Xrotation Yrotation
                    JOINT LeftHandThumb3
                    {
                      OFFSET 2.2474 -0.804199 1.6192
                      CHANNELS 3 Zrotation Xrotation Yrotation
                      End Site
                      {
                        OFFSET 1.6527 -0.5689 1.1317
                      }
                    }
                  }
                }
              }
            }
          }
        }
        JOINT RightShoulder
        {
          OFFSET -2.2086 21.1115 7.2329
          CHANNELS 3 Zrotation Xrotation Yrotation
          JOINT RightArm
          {
            OFFSET -13.1216 3.0287 -4.9007
            CHANNELS 3 Zrotation Xrotation Yrotation
            JOINT RightForeArm
            {
              OFFSET -27.4081 -0.0973053 -0.2375
              CHANNELS 3 Zrotation Xrotation Yrotation
              JOINT RightHand
              {
                OFFSET -22.8641 0.0664063 -0.1369
                CHANNELS 3 Zrotation Xrotation Yrotation
                JOINT RightHandIndex1
                {
                  OFFSET -8.8614 0.774994 2.4612
                  CHANNELS 3 Zrotation Xrotation Yrotation
                  JOINT RightHandIndex2
                  {
                    OFFSET -3.3146 -0.808304 0.5841
                    CHANNELS 3 Zrotation Xrotation Yrotation
                    JOINT RightHandIndex3
                    {
                      OFFSET -2.2628 -0.552002 0.3989
                      CHANNELS 3 Zrotation Xrotation Yrotation
                      End Site
                      {
                        OFFSET -1.6102 -0.4807 0.2612
                      }
                    }
                  }
                }
                JOINT RightHandMiddle1
                {
                  OFFSET -8.9937 0.894989 0.2143
                  CHANNELS 3 Zrotation Xrotation Yrotation
                  JOINT RightHandMiddle2
                  {
                    OFFSET -4.0984 0.0113983 -0.0242
                    CHANNELS 3 Zrotation Xrotation Yrotation
                    JOINT RightHandMiddle3
                    {
                      OFFSET -2.2716 0.00691223 -0.0138001
                      CHANNELS 3 Zrotation Xrotation Yrotation
                      End Site
                      {
                        OFFSET -2.0404 -0.1441 0.0027
                      }
                    }
                  }
                }
                JOINT RightHandRing1
                {
                  OFFSET -8.5234 0.597198 -2.0164
                  CHANNELS 3 Zrotation Xrotation Yrotation
                  JOINT RightHandRing2
                  {
                    OFFSET -3.7188 -0.188309 -0.2328
                    CHANNELS 3 Zrotation Xrotation Yrotation
                    JOINT RightHandRing3
                    {
                      OFFSET -2.1191 -0.106598 -0.1332
                      CHANNELS 3 Zrotation Xrotation Yrotation
                      End Site
                      {
                        OFFSET -1.8737 -0.2304 -0.0886
                      }
                    }
                  }
                }
                JOINT RightHandPinky1
                {
                  OFFSET -7.9094 -0.601105 -3.4825
                  CHANNELS 3 Zrotation Xrotation Yrotation
                  JOINT RightHandPinky2
                  {
                    OFFSET -2.2874 -0.477005 -0.6314
                    CHANNELS 3 Zrotation Xrotation Yrotation
                    JOINT RightHandPinky3
                    {
                      OFFSET -1.6774 -0.349396 -0.4633
                      CHANNELS 3 Zrotation Xrotation Yrotation
                      End Site
                      {
                        OFFSET -1.4888 -0.4091 -0.3416
                      }
                    }
                  }
                }
                JOINT RightHandThumb1
                {
                  OFFSET -1.833 -1.38751 1.3896
                  CHANNELS 3 Zrotation Xrotation Yrotation
                  JOINT RightHandThumb2
                  {
                    OFFSET -3.41299 -1.12099 2.5732
                    CHANNELS 3 Zrotation Xrotation Yrotation
                    JOINT RightHandThumb3
                    {
                      OFFSET -2.24741 -0.804108 1.6192
                      CHANNELS 3 Zrotation Xrotation Yrotation
                      End Site
                      {
                        OFFSET -1.6527 -0.5689 1.1317
                      }
                    }
                  }
                }
              }
            }
          }
        }
      }
    }
  }
  JOINT RightUpLeg
  {
    OFFSET -9.1966 3.8861 -0.7581
    CHANNELS 3 Zrotation Xrotation Yrotation
    JOINT RightLeg
    {
      OFFSET -0.7359 -41.0265 0
      CHANNELS 3 Zrotation Xrotation Yrotation
      JOINT RightFoot
      {
        OFFSET 0 -40.2855 0
        CHANNELS 3 Zrotation Xrotation Yrotation
        JOINT RightToeBase
        {
          OFFSET 0 -5.6122 11.7359
          CHANNELS 3 Zrotation Xrotation Yrotation
          End Site
          {
            OFFSET 0 0 7.8731
          }
        }
      }
    }
  }
  JOINT LeftUpLeg
  {
    OFFSET 9.1965 3.8864 -0.7581
    CHANNELS 3 Zrotation Xrotation Yrotation
    JOINT LeftLeg
    {
      OFFSET 0.7359 -41.0268 0
      CHANNELS 3 Zrotation Xrotation Yrotation
      JOINT LeftFoot
      {
        OFFSET 0 -40.2855 0
        CHANNELS 3 Zrotation Xrotation Yrotation
        JOINT LeftToeBase
        {
          OFFSET 0 -5.6122 11.7359
          CHANNELS 3 Zrotation Xrotation Yrotation
          End Site
          {
            OFFSET 0 0 7.8731
          }
        }
      }
    }
  }
}
MOTION
Frames:	6
Frame Time:	0.0333333
1.6299 9.7464 16.4474 0 21.6234 -0 0.0695552 17.4678 -0.539777 0.348122 34.9341 -1.1933 0.348123 34.9341 -1.1933 -1.62694e-005 -48.0029 -7.42162e-006 -10.4988 -33.8717 -5.34114 46.116 12.9183 -17.0044 -51.26 -28.9079 -88.9527 -40.8223 -24.3756 -78.7621 -43.5156 8.94323 -9.11219 -6.23224e-008 -2.66101e-008 1.74034e-007 -5.34192e-008 -2.28087e-008 1.49172e-007 -1.76033e-006 -6.73892e-008 -9.74261e-008 -6.23224e-008 -2.66101e-008 1.74034e-007 -0.0146201 -8.89718e-005 -1.15702e-006 -1.7603e-006 -6.73766e-008 -9.74333e-008 -6.23224e-008 -2.66101e-008 1.74034e-007 -0.0187703 -0.00118215 6.07393e-005 -1.76029e-006 -6.73697e-008 -9.74191e-008 -6.23224e-008 -2.66101e-008 1.74034e-007 -0.0122223 -0.00323959 0.000673118 -1.76031e-006 -6.73615e-008 -9.73849e-008 -6.23224e-008 -2.66101e-008 1.74034e-007 -5.34192e-008 -2.28087e-008 1.49172e-007 -1.76033e-006 -6.73892e-008 -9.74261e-008 -18.1834 -0.626814 10.4962 -8.85534 -18.6223 74.412 46.9437 -35.0198 62.1275 41.2882 9.36849 51.9978 3.2405e-007 -2.37635e-007 -1.2135e-006 -1.08017e-007 7.92115e-008 4.04501e-007 -1.02478e-006 -3.48077e-006 8.98796e-009 3.2405e-007 -2.37635e-007 -1.2135e-006 0.0150157 -9.0907e-005 -2.77709e-007 -9.87615e-008 -3.31519e-006 2.29625e-007 3.2405e-007 -2.37635e-007 -1.2135e-006 0.0189778 -0.00118942 -6.0646e-005 -9.87268e-008 -3.31519e-006 2.2974e-007 3.2405e-007 -2.37635e-007 -1.2135e-006 0.0122586 -0.00324439 -0.00067563 8.28666e-007 -3.15005e-006 4.49618e-007 3.2405e-007 -2.37635e-007 -1.2135e-006 -1.08017e-007 7.92115e-008 4.04501e-007 -1.02478e-006 -3.48077e-006 8.98796e-009 -62.0619 -1.59721 -24.0697 -13.5664 85.2663 12.2609 -3.32055 -3.12867 -1.65086 -2.17112e-032 -1.98785e-016 -6.25783e-015 61.8747 -1.6361 23.8748 13.5956 85.2528 -12.2972 3.39274 -3.35575 1.35211 -1.04589e-008 5.39616e-008 1.21215e-006 
1.62989 9.70496 16.2744 0 21.7484 -0 0.0695183 17.4635 -0.539704 0.347946 34.9256 -1.19307 0.347945 34.9256 -1.19307 1.28253e-005 -48.0029 6.12851e-006 -10.7801 -33.7897 -5.49822 45.6666 12.0096 -16.967 -51.3307 -28.5197 -88.6129 -40.8192 -24.39 -78.7609 -43.9511 8.50091 -8.59624 -1.77026e-008 -7.6373e-009 4.97559e-008 3.54052e-008 1.52746e-008 -9.95118e-008 4.42564e-008 1.90932e-008 -1.2439e-007 -1.77026e-008 -7.6373e-009 4.97559e-008 -0.0146084 -8.82872e-005 -1.91898e-007 4.42563e-008 1.91091e-008 -1.24387e-007 -1.77026e-008 -7.6373e-009 4.97559e-008 -0.0187712 -0.00117923 5.80767e-005 4.42551e-008 1.91136e-008 -1.24387e-007 -1.77026e-008 -7.6373e-009 4.97559e-008 -0.0122341 -0.00324206 0.000675692 4.09248e-007 -1.32709e-006 -2.15013e-007 -1.77026e-008 -7.6373e-009 4.97559e-008 3.54052e-008 1.52746e-008 -9.95118e-008 4.42564e-008 1.90932e-008 -1.2439e-007 -18.1917 -0.715906 10.3761 -8.85534 -18.6223 74.412 46.9437 -35.0198 62.1275 41.2882 9.36849 51.9978 1.08063e-007 -7.89652e-008 -4.04552e-007 -1.61821e-006 1.02536e-007 -4.32252e-007 2.16126e-007 -1.5793e-007 -8.09103e-007 1.08063e-007 -7.89652e-008 -4.04552e-007 0.0150069 -8.98249e-005 -3.7921e-008 2.16132e-007 -1.58036e-007 -8.09083e-007 1.08063e-007 -7.89652e-008 -4.04552e-007 0.0189929 -0.00119437 -5.94074e-005 -7.05959e-007 -3.24164e-007 -1.01969e-006 1.08063e-007 -7.89652e-008 -4.04552e-007 0.0122527 -0.00323937 -0.00067415 2.1611e-007 -1.58017e-007 -8.09093e-007 1.08063e-007 -7.89652e-008 -4.04552e-007 -1.61821e-006 1.02536e-007 -4.32252e-007 2.16126e-007 -1.5793e-007 -8.09103e-007 -62.2134 -1.84427 -24.2386 -14.7316 85.5392 13.4142 -3.32462 -3.14239 -1.64208 2.35113e-008 -2.99303e-008 -4.0364e-006 62.0348 -1.88185 24.0534 14.7574 85.5264 -13.4471 3.39301 -3.35756 1.35908 -3.72721e-017 -1.98785e-016 2.24487e-015 
1.62989 9.66357 16.1014 0 21.8735 -0 0.0694793 17.4594 -0.539621 0.347748 34.9171 -1.19282 0.347748 34.9171 -1.19282 -2.00748e-006 -48.003 -5.78548e-007 -11.0606 -33.7071 -5.65461 45.2195 11.101 -16.9369 -51.4038 -28.1319 -88.2739 -40.8162 -24.4043 -78.7597 -44.3819 8.05484 -8.08438 1.67215e-006 -3.15255e-006 -1.76979e-007 1.67174e-007 7.29054e-008 -4.72982e-007 -1.41019e-007 -3.24396e-006 -1.17745e-007 1.67215e-006 -3.15255e-006 -1.76979e-007 -0.0146198 -8.59866e-005 1.06612e-006 -1.41163e-007 -3.24395e-006 -1.18159e-007 1.67215e-006 -3.15255e-006 -1.76979e-007 -0.0187373 -0.00117769 5.89438e-005 -1.41206e-007 -3.24395e-006 -1.18274e-007 1.67215e-006 -3.15255e-006 -1.76979e-007 -0.0122806 -0.00325048 0.000679359 -1.41162e-007 -3.24398e-006 -1.18082e-007 1.67215e-006 -3.15255e-006 -1.76979e-007 1.67174e-007 7.29054e-008 -4.72982e-007 -1.41019e-007 -3.24396e-006 -1.17745e-007 -18.2001 -0.804952 10.2559 -8.85533 -18.6224 74.412 46.9438 -35.0198 62.1275 41.2882 9.36849 51.9978 -1.08108e-007 7.87192e-008 4.04602e-007 -1.08108e-007 7.87192e-008 4.04602e-007 -1.08108e-007 7.87192e-008 4.04602e-007 -1.08108e-007 7.87192e-008 4.04602e-007 0.0150143 -8.89707e-005 -2.00931e-007 -1.08111e-007 7.87722e-008 4.04592e-007 -1.08108e-007 7.87192e-008 4.04602e-007 0.0189793 -0.0011903 -5.89142e-005 -1.08108e-007 7.87864e-008 4.0459e-007 -1.08108e-007 7.87192e-008 4.04602e-007 0.0122988 -0.0032577 -0.000677017 -1.081e-007 7.87627e-008 4.04597e-007 -1.08108e-007 7.87192e-008 4.04602e-007 -1.08108e-007 7.87192e-008 4.04602e-007 -1.08108e-007 7.87192e-008 4.04602e-007 -62.3655 -2.09084 -24.4082 -16.0472 85.8099 14.718 -3.32877 -3.15608 -1.63335 2.48537e-008 -3.15325e-008 -4.03493e-006 62.1956 -2.12716 24.2328 16.0706 85.7979 -14.748 3.39332 -3.35937 1.36604 2.2501e-008 1.95585e-008 -4.04585e-006 
1.62989 9.62222 15.9283 0 21.9986 -0 0.0694285 17.4551 -0.539531 0.347534 34.9086 -1.19254 0.347535 34.9086 -1.19255 -7.93116e-006 -48.0029 -4.73055e-006 -11.3405 -33.6238 -5.8103 44.7743 10.1927 -16.9141 -51.4792 -27.7446 -87.9355 -40.8131 -24.4187 -78.7584 -44.8081 7.60511 -7.5766 -1.92277e-007 -3.26942e-006 2.94163e-008 3.61694e-006 1.80363e-007 -1.01171e-007 -2.01022e-007 -3.27327e-006 5.4326e-008 -1.92277e-007 -3.26942e-006 2.94163e-008 -0.0146043 -9.12934e-005 -9.85878e-007 -2.01164e-007 -3.27328e-006 5.39088e-008 -1.92277e-007 -3.26942e-006 2.94163e-008 -0.0187522 -0.00117448 6.04265e-005 -2.01206e-007 -3.27329e-006 5.37928e-008 -1.92277e-007 -3.26942e-006 2.94163e-008 -0.0122328 -0.00323214 0.00067535 -2.01159e-007 -3.27331e-006 5.39887e-008 -1.92277e-007 -3.26942e-006 2.94163e-008 3.61694e-006 1.80363e-007 -1.01171e-007 -2.01022e-007 -3.27327e-006 5.4326e-008 -18.2088 -0.893993 10.1356 -8.85534 -18.6223 74.412 46.9438 -35.0198 62.1275 41.2883 9.3685 51.9978 -1.08154e-007 7.84737e-008 4.04652e-007 -2.16308e-007 1.56948e-007 8.09304e-007 -1.08154e-007 7.84738e-008 4.04652e-007 -1.08154e-007 7.84737e-008 4.04652e-007 0.0150072 -8.95697e-005 1.66577e-006 -1.08157e-007 7.85268e-008 4.04642e-007 -1.08154e-007 7.84737e-008 4.04652e-007 0.0190085 -0.00119166 -5.71374e-005 -1.08154e-007 7.85411e-008 4.0464e-007 -1.08154e-007 7.84737e-008 4.04652e-007 0.0122452 -0.00324103 -0.000675358 -1.08146e-007 7.85171e-008 4.04647e-007 -1.08154e-007 7.84737e-008 4.04652e-007 -2.16308e-007 1.56948e-007 8.09304e-007 -1.08154e-007 7.84738e-008 4.04652e-007 -62.5183 -2.33711 -24.5786 -17.5447 86.0782 16.2033 -3.33282 -3.16981 -1.6246 -1.49089e-016 -1.98785e-016 1.28589e-015 62.357 -2.37197 24.4131 17.5635 86.0669 -16.2287 3.39365 -3.3612 1.37306 7.45443e-017 -9.93923e-017 -5.10085e-015 
1.62988 9.58091 15.7553 0 22.1236 -0 0.0693703 17.4506 -0.539436 0.347308 34.9001 -1.19226 0.347308 34.9001 -1.19226 -2.54601e-005 -48.0029 -1.71313e-005 -11.6198 -33.54 -5.96528 44.3311 9.28469 -16.8986 -51.5568 -27.3577 -87.5978 -40.8101 -24.4331 -78.7572 -45.2297 7.15182 -7.07291 7.82217e-008 3.49021e-008 -2.24326e-007 -2.60739e-008 -1.1634e-008 7.47755e-008 3.47652e-008 1.55121e-008 -9.97006e-008 7.82217e-008 3.49021e-008 -2.24326e-007 -0.0145678 -8.67212e-005 -1.76661e-007 3.47651e-008 1.55247e-008 -9.96987e-008 7.82217e-008 3.49021e-008 -2.24326e-007 -0.0187518 -0.00118021 5.86387e-005 4.26868e-007 -1.24364e-006 -1.6746e-007 7.82217e-008 3.49021e-008 -2.24326e-007 -0.0123442 -0.00326955 0.00068118 3.47624e-008 1.55226e-008 -9.96999e-008 7.82217e-008 3.49021e-008 -2.24326e-007 -2.60739e-008 -1.1634e-008 7.47755e-008 3.47652e-008 1.55121e-008 -9.97006e-008 -18.2176 -0.983006 10.0154 -8.85534 -18.6223 74.412 46.9438 -35.0198 62.1275 41.2882 9.36849 51.9978 6.84938e-007 3.24578e-007 9.91325e-007 -2.164e-007 1.56457e-007 8.09402e-007 2.48481e-015 3.18055e-015 -1.19271e-015 6.84938e-007 3.24578e-007 9.91325e-007 0.0149719 -9.78239e-005 1.55246e-006 -3.08116e-015 -6.36111e-015 1.39149e-015 6.84938e-007 3.24578e-007 9.91325e-007 0.0190002 -0.00119496 -5.72716e-005 2.78299e-015 -3.18055e-015 2.38542e-015 6.84938e-007 3.24578e-007 9.91325e-007 0.0122617 -0.00324743 -0.000675677 -2.5842e-015 -3.18055e-015 2.38542e-015 6.84938e-007 3.24578e-007 9.91325e-007 -2.164e-007 1.56457e-007 8.09402e-007 2.48481e-015 3.18055e-015 -1.19271e-015 -62.6717 -2.58289 -24.7498 -19.259 86.3434 17.9054 -3.33696 -3.18353 -1.61592 2.74997e-008 -3.4761e-008 -4.03201e-006 62.5193 -2.61624 24.5941 19.2738 86.3328 -17.9267 3.39397 -3.36312 1.38009 4.72689e-006 2.7307e-006 -8.66935e-006 
1.62987 9.53965 15.5823 0 22.2487 -0 0.0693167 17.4466 -0.539337 0.347073 34.8916 -1.19197 0.347073 34.8915 -1.19197 -1.73123e-005 -48.0029 -1.0581e-005 -11.8984 -33.4556 -6.11957 43.8895 8.37734 -16.8901 -51.6368 -26.9713 -87.2607 -40.807 -24.4474 -78.7559 -45.6466 6.69509 -6.57329 -1.72731e-008 -7.80088e-009 4.98814e-008 -1.20912e-007 -5.46062e-008 3.4917e-007 -8.63655e-008 -3.90044e-008 2.49407e-007 -1.72731e-008 -7.80088e-009 4.98814e-008 -0.0146372 -8.94009e-005 3.98853e-008 -4.87978e-007 1.19054e-006 3.08594e-007 -1.72731e-008 -7.80088e-009 4.98814e-008 -0.018726 -0.001169 6.10299e-005 -8.63629e-008 -3.90451e-008 2.49401e-007 -1.72731e-008 -7.80088e-009 4.98814e-008 -0.0123074 -0.00326687 0.000678484 -8.63586e-008 -3.90307e-008 2.49405e-007 -1.72731e-008 -7.80088e-009 4.98814e-008 -1.20912e-007 -5.46062e-008 3.4917e-007 -8.63655e-008 -3.90044e-008 2.49407e-007 -18.2267 -1.072 9.89514 -8.85532 -18.6223 74.412 46.9438 -35.0198 62.1275 41.2882 9.3685 51.9978 1.08244e-007 -7.79837e-008 -4.04751e-007 3.24733e-007 -2.33951e-007 -1.21425e-006 1.08244e-007 -7.79837e-008 -4.04751e-007 1.08244e-007 -7.79837e-008 -4.04751e-007 0.0149746 -9.34032e-005 -5.721e-007 1.08247e-007 -7.80366e-008 -4.04741e-007 1.08244e-007 -7.79837e-008 -4.04751e-007 0.0190137 -0.00119378 -6.0078e-005 1.08244e-007 -7.80511e-008 -4.04739e-007 1.08244e-007 -7.79837e-008 -4.04751e-007 0.0122599 -0.00324482 -0.0006754 1.08236e-007 -7.80271e-008 -4.04746e-007 1.08244e-007 -7.79837e-008 -4.04751e-007 3.24733e-007 -2.33951e-007 -1.21425e-006 1.08244e-007 -7.79837e-008 -4.04751e-007 -62.8258 -2.82816 -24.9217 -21.2397 86.6047 19.8738 -3.34106 -3.19733 -1.60724 4.39664e-008 9.39981e-008 -1.29037e-006 62.6822 -2.86004 24.7758 21.2499 86.595 -19.8902 3.39426 -3.36502 1.38718 2.6085e-008 -8.03278e-008 -1.25386e-006 
